<?xml version="1.0" standalone="no"?>
<!DOCTYPE svg PUBLIC "-//W3C//DTD SVG 20010904//EN"
 "http://www.w3.org/TR/2001/REC-SVG-20010904/DTD/svg10.dtd">
<svg version="1.0" xmlns="http://www.w3.org/2000/svg"
 width="418.000000pt" height="522.000000pt" viewBox="0 0 418.000000 522.000000"
 preserveAspectRatio="xMidYMid meet">
<metadata>
Created by potrace 1.16, written by Peter Selinger 2001-2019
</metadata>
<g transform="translate(0.000000,522.000000) scale(0.100000,-0.100000)"
fill="#000000" stroke="none">
<path d="M120 3084 c-57 -26 -120 -79 -120 -100 0 -28 23 -24 62 11 54 50 118
77 182 77 63 1 113 -23 127 -60 25 -64 -17 -215 -112 -402 -52 -103 -57 -117
-43 -130 13 -13 16 -13 25 2 20 35 188 246 266 334 137 153 242 234 307 234
27 0 28 -2 23 -35 -3 -19 -37 -109 -76 -199 -79 -183 -108 -283 -97 -339 10
-53 76 -126 76 -84 0 7 -10 21 -21 31 -32 27 -22 108 25 221 122 289 126 300
126 352 0 92 -47 112 -148 62 -52 -25 -94 -59 -183 -148 -64 -64 -132 -136
-152 -161 l-36 -45 26 75 c21 57 27 94 28 157 0 77 -2 83 -30 114 -62 65 -159
78 -255 33z"/>
<path d="M2668 3081 c-111 -24 -172 -45 -227 -76 -31 -18 -48 -22 -55 -15 -44
44 -120 -33 -261 -265 -54 -90 -74 -114 -108 -132 -23 -12 -54 -22 -69 -23
-51 0 -44 33 10 45 37 8 92 58 92 84 0 22 -19 41 -41 41 -21 0 -119 -87 -119
-106 0 -15 -77 -70 -86 -61 -8 8 14 47 44 79 22 23 23 30 12 44 -13 14 -19 11
-60 -34 -25 -27 -60 -57 -78 -66 l-33 -17 21 40 c25 50 25 58 -1 71 -17 10
-27 7 -59 -14 -31 -20 -37 -22 -36 -8 2 25 -31 27 -39 2 -6 -19 -78 -80 -95
-80 -4 0 -5 11 -2 25 7 37 -23 44 -49 11 -11 -14 -30 -31 -42 -38 -21 -11 -21
-10 -6 13 9 13 28 32 42 43 23 17 30 18 52 6 30 -16 43 -7 24 16 -36 43 -86
34 -143 -27 -49 -51 -76 -67 -74 -42 5 63 -16 88 -55 64 -18 -12 -18 -10 4 26
12 21 28 46 33 56 7 11 23 17 49 17 42 0 47 17 10 35 -19 10 -19 11 8 55 32
51 35 65 15 73 -10 4 -28 -16 -55 -59 l-40 -64 -52 0 -51 0 17 28 c10 15 33
49 52 75 33 46 38 84 11 75 -7 -3 -40 -44 -72 -91 l-60 -87 -129 0 c-117 0
-128 -2 -125 -17 3 -15 18 -19 80 -25 81 -7 118 -20 118 -41 0 -22 -38 -74
-73 -101 -40 -31 -49 -32 -46 -8 3 31 -1 42 -13 42 -7 0 -32 -19 -57 -42 l-44
-43 19 35 c27 48 67 69 95 52 25 -16 32 -12 23 12 -18 48 -102 35 -142 -21
-33 -46 -36 -76 -12 -98 20 -18 21 -18 49 3 24 18 30 19 35 7 7 -20 46 -19 74
1 21 14 22 14 22 -5 0 -44 70 -41 122 5 15 15 16 14 11 -4 -11 -43 20 -33 77
23 l57 57 7 -37 c8 -41 27 -52 60 -37 19 8 26 7 39 -9 21 -24 28 -24 60 1 21
17 26 18 31 5 6 -17 43 -20 65 -6 9 6 21 5 32 -2 16 -10 25 -5 61 29 24 22 53
48 65 58 l22 18 -11 -29 c-21 -55 14 -89 62 -61 25 14 27 14 36 -6 13 -30 35
-30 78 -1 l38 26 20 -27 c18 -22 27 -25 57 -21 20 3 44 8 54 12 15 6 16 4 7
-20 -17 -45 -12 -74 14 -86 34 -16 91 13 188 94 105 87 113 96 100 109 -8 8
-24 -1 -60 -34 -71 -67 -171 -138 -194 -138 -24 0 -20 16 27 115 28 59 46 81
114 138 55 46 81 62 81 51 0 -30 43 -93 82 -119 70 -46 83 -23 13 25 -74 51
-72 125 6 214 69 78 237 142 434 166 159 19 279 -4 340 -66 120 -120 -25 -324
-242 -342 -34 -2 -63 -9 -63 -15 0 -18 82 -87 150 -127 101 -59 333 -150 348
-136 12 13 -25 34 -117 65 -105 36 -213 88 -281 134 l-44 31 74 16 c123 27
203 78 239 153 55 114 -7 247 -139 299 -79 31 -299 36 -422 9z m-1479 -382
c-28 -41 -60 -73 -101 -100 -97 -62 -100 -54 -25 72 l52 89 58 0 58 0 -42 -61z"/>
<path d="M2952 2887 c-12 -13 -22 -28 -22 -33 0 -6 -16 -8 -35 -6 -53 6 -89
-14 -153 -83 -90 -98 -187 -291 -180 -358 3 -28 7 -32 37 -35 26 -3 40 3 63
25 41 38 130 156 213 280 55 83 71 101 82 92 19 -17 27 -5 13 21 -9 17 -7 27
10 56 21 32 21 64 2 64 -5 0 -18 -10 -30 -23z m-50 -87 c-2 -7 -43 -72 -92
-144 -84 -125 -192 -256 -210 -256 -14 0 24 100 71 191 47 89 137 194 184 215
34 15 51 13 47 -6z"/>
<path d="M3327 2723 c-4 -3 -7 -12 -7 -19 0 -7 -11 -24 -24 -37 -35 -36 -50
-95 -30 -125 8 -13 22 -26 30 -29 21 -8 63 23 81 62 10 21 21 31 30 28 11 -5
11 -9 -2 -29 -16 -26 -13 -44 9 -44 6 0 40 32 75 71 35 38 65 68 68 66 2 -3
-5 -24 -17 -47 -17 -33 -19 -44 -9 -56 10 -13 15 -12 34 6 28 27 32 25 27 -10
-5 -36 13 -40 50 -11 24 19 24 19 36 0 15 -24 27 -24 62 1 24 17 29 18 34 5 7
-18 47 -20 65 -2 11 10 14 10 18 0 8 -22 26 -15 78 30 62 52 96 78 78 57 -18
-19 -16 -65 2 -80 22 -19 56 -5 99 39 50 51 41 63 -16 22 -55 -41 -74 -41 -53
-1 39 76 -8 103 -76 43 -15 -13 -17 -12 -15 3 2 26 -31 30 -39 5 -6 -19 -80
-81 -97 -81 -5 0 -6 11 -2 25 11 46 -22 43 -73 -6 -45 -43 -45 -43 -27 -11 24
43 71 69 96 53 23 -14 28 -14 28 3 0 22 -28 39 -62 38 -23 -1 -44 -13 -82 -51
-50 -49 -52 -50 -61 -28 -6 12 -19 22 -30 21 -17 0 -20 5 -17 38 4 35 2 38
-21 38 -13 0 -30 -7 -38 -16 -11 -14 -13 -14 -21 0 -13 24 -24 20 -47 -19 -22
-39 -61 -49 -61 -16 0 38 -53 85 -73 64z"/>
</g>
</svg>
